<svg xmlns="http://www.w3.org/2000/svg" width="28.016" height="28.012" viewBox="0 0 28.016 28.012">
  <g id="Grupo_134" data-name="Grupo 134" transform="translate(-263.491 -979.181)">
    <g id="Grupo_132" data-name="Grupo 132" transform="translate(270.938 988.133)">
      <path id="Caminho_96" data-name="Caminho 96" d="M293.029,1018.392A6.671,6.671,0,0,1,288.31,1007a1.14,1.14,0,0,1,1.612,1.612,4.393,4.393,0,1,0,6.213,0,1.14,1.14,0,0,1,1.612-1.612,6.67,6.67,0,0,1-4.719,11.388Z" transform="translate(-286.356 -1006.67)" fill="#2bc6fc"/>
    </g>
    <g id="Grupo_133" data-name="Grupo 133" transform="translate(263.491 979.181)">
      <path id="Caminho_97" data-name="Caminho 97" d="M278.9,1007.193h0l-2.811,0a2.181,2.181,0,0,1-2.175-2.181l0-1.3a.667.667,0,0,0-.41-.617l-.083-.035a.687.687,0,0,0-.758.152l-.864.875a2.161,2.161,0,0,1-1.551.649h0a2.16,2.16,0,0,1-1.552-.654l-2-2.039a2.189,2.189,0,0,1,0-3.053l.911-.924a.7.7,0,0,0,.133-.76l-.036-.089a.723.723,0,0,0-.67-.44l-1.344,0a2.207,2.207,0,0,1-2.207-2.2l.006-2.766a2.207,2.207,0,0,1,2.2-2.2h0l1.255,0h0a.717.717,0,0,0,.662-.44l.014-.033a.718.718,0,0,0-.16-.793l-.842-.83a2.2,2.2,0,0,1,.007-3.147l2.01-1.962a2.214,2.214,0,0,1,3.085.007l.9.89a.727.727,0,0,0,.79.134l.04-.016a.689.689,0,0,0,.446-.629v-1.4a2.206,2.206,0,0,1,2.2-2.2h2.758a2.206,2.206,0,0,1,2.2,2.2v1.251a.717.717,0,0,0,.441.663l.035.015a.721.721,0,0,0,.794-.165l.824-.839a2.187,2.187,0,0,1,1.573-.66h0a2.188,2.188,0,0,1,1.573.661l1.963,2a2.215,2.215,0,0,1,0,3.086l-.877.894a.747.747,0,0,0-.136.811l.016.039a.709.709,0,0,0,.646.46h1.37a2.2,2.2,0,0,1,2.2,2.2l0,2.758a2.206,2.206,0,0,1-2.2,2.2h-1.248a.72.72,0,0,0-.665.442.731.731,0,0,0,.147.824l.843.829a2.2,2.2,0,0,1,0,3.145l-2,1.962a2.214,2.214,0,0,1-3.087,0l-.892-.877a.746.746,0,0,0-.808-.137l-.036.015a.71.71,0,0,0-.463.647l0,1.4A2.181,2.181,0,0,1,278.9,1007.193Zm-2.708-2.284,2.607,0,0-1.3a2.979,2.979,0,0,1,1.881-2.755l.465,1.041-.433-1.055a3.02,3.02,0,0,1,3.273.62l.838.825,1.894-1.856-.787-.774a3.025,3.025,0,0,1,2.117-5.171h1.172l0-2.606h-1.294a2.98,2.98,0,0,1-2.757-1.88l1.042-.465-1.054.434a3.023,3.023,0,0,1,.617-3.275l.825-.84-1.857-1.894-.769.783a2.994,2.994,0,0,1-3.311.667l-.034-.015a2.988,2.988,0,0,1-1.83-2.761v-1.174H276.2v1.324a2.959,2.959,0,0,1-1.869,2.741l-.036.014a3,3,0,0,1-3.25-.62l-.85-.838-1.9,1.855.786.775a2.987,2.987,0,0,1,.659,3.305l-.014.034a2.992,2.992,0,0,1-2.762,1.831h-.006l-1.179,0-.006,2.608,1.276,0a2.983,2.983,0,0,1,2.779,1.864l.03.073a2.972,2.972,0,0,1-.616,3.232l-.841.852,1.854,1.893.791-.8a2.956,2.956,0,0,1,3.26-.655l.083.035a2.94,2.94,0,0,1,1.811,2.724ZM289.3,991.882h0Z" transform="translate(-263.491 -979.181)" fill="#2bc6fc"/>
    </g>
  </g>
</svg>
